<svg width="232.9" height="232.9" version="1.1" viewBox="0 0 232.9 232.9" xmlns="http://www.w3.org/2000/svg" xmlns:xlink="http://www.w3.org/1999/xlink">
	<defs>
		<clipPath id="clipPath2">
			<path transform="translate(-132.5 -132.12)" d="M 0,283.46 H 283.46 V 0 H 0 Z"/>
		</clipPath>
		<clipPath id="clipPath4">
			<path transform="translate(-104.91 -187.92)" d="M 0,283.46 H 283.46 V 0 H 0 Z"/>
		</clipPath>
		<clipPath id="clipPath6">
			<path transform="translate(-141.92 -253.72)" d="M 0,283.46 H 283.46 V 0 H 0 Z"/>
		</clipPath>
	</defs>
	<g transform="translate(-72.781 -36.696)" fill="#f60" stroke="#f60" stroke-width="2.25">
		<path transform="matrix(1.3333 0 0 -1.3333 176.67 201.79)" d="m0 0c-4.99 0.146-9.859 0.105-14.529-0.067 1.901 6.811 7.941 13.584 9.269 15.013 3.367-1.268 7.003-2.061 10.901-2.175 0.332-0.01 0.665-0.015 0.998-0.015 0.945 0 1.892 0.041 2.842 0.12-0.942-0.701-2.272-1.768-3.656-3.136-2.267-2.242-5.062-5.716-5.825-9.74m-20.49-4.442c-12.851-2.721-25.412-5.996-30.216-7.277-0.833-0.222-1.714 0.075-2.245 0.757l-1.455 1.872c-0.462 0.593-0.581 1.368-0.317 2.072 0.262 0.701 0.858 1.207 1.594 1.351 8.781 1.725 26.508 4.604 46.941 4.604 1.409 0 2.832-0.014 4.264-0.042-5.024-0.669-11.222-1.782-18.566-3.337m54.868 69.374c-1.503-3.215-3.157-6.237-4.953-9.041-5.949-9.29-13.439-16.05-21.091-19.037-7.842-3.061-15.488-2.076-21.529 2.774-1.923 1.544-2.656 3.075-2.24 4.68 1.843 7.112 25.02 14.676 49.813 20.624m-67.715-20.589c-0.782 1.506-2.179 2.615-3.832 3.042l-13.672 3.528c-0.014 3e-3 -0.051 0.013-0.061 0.064-0.011 0.051 0.019 0.074 0.031 0.082l13.603 10.465 0.055 0.085c3.953 6.166 8.632 9.632 13.909 10.302 0.647 0.082 1.288 0.12 1.921 0.12 7.724 0 14.268-5.688 15.586-6.912 0.197-0.183 0.462-0.262 0.727-0.214 0.263 0.047 0.491 0.218 0.612 0.457 9.804 19.407 42.171 27.693 47.464 28.931-1.581-10.243-4.31-19.745-8.023-28.04-2.589-0.613-5.201-1.253-7.808-1.917-27.434-6.995-42.146-13.636-43.727-19.739-0.534-2.062 0.352-4.037 2.635-5.869 6.376-5.12 14.427-6.166 22.67-2.949 7.992 3.119 15.477 9.858 21.644 19.489 1.977 3.086 3.784 6.433 5.409 10.004 13.177 3.121 26.702 5.776 37.636 7.658-23.433-39.173-45.899-59.02-66.801-59.02-0.322 0-0.645 5e-3 -0.966 0.014-3.887 0.115-7.507 0.93-10.857 2.229-0.014 6e-3 -0.027 0.011-0.042 0.016-15.488 6.03-25.14 22.444-28.113 28.174m42.793-46.84c4.89-3.871 8.12-11.714 8.153-11.794 0.091-0.225 0.307-0.36 0.535-0.36 0.072 0 0.146 0.013 0.217 0.042 0.295 0.12 0.437 0.457 0.317 0.752-0.133 0.327-3.149 7.656-7.963 11.817 3.123-0.66 9.629-2.513 12.607-6.882 1.551-2.275 1.944-4.972 1.168-8.017-0.497-1.948-1.983-3.498-3.975-4.147-2.039-0.664-4.207-0.273-5.801 1.046-4.371 3.619-6.173 9.671-5.258 17.543m22.377 14.329c2.315 1.492 5.021 1.815 8.045 0.963 1.935-0.547 3.447-2.072 4.044-4.079 0.612-2.056 0.165-4.214-1.194-5.773-3.688-4.23-9.69-5.886-17.408-4.844 4.274 5.325 10.983 8.249 11.053 8.279 0.293 0.126 0.429 0.465 0.303 0.758-0.125 0.293-0.465 0.428-0.758 0.303-0.294-0.126-6.945-3.022-11.392-8.486 0.643 2.882 2.635 9.867 7.307 12.879m20.803-23.607c0.292-0.13 0.633 1e-3 0.762 0.292 0.131 0.291 0 0.632-0.291 0.762-2.882 1.289-5.918 2.462-9.077 3.527 4.389 1.382 16.973 4.494 25.068-2.135 1.318-1.079 1.996-2.607 1.911-4.302-0.105-2.072-1.347-4.139-3.24-5.393-9.144-6.057-15.715 0.639-22.071 7.116-1.57 1.599-3.083 3.137-4.601 4.453 4.058-1.261 7.918-2.701 11.539-4.32m-41.186 24.621c0.109 0.068 0.185 0.167 0.228 0.278 19.964 2.903 41.142 22.945 63.05 59.708 0.18 0.303 0.169 0.671-0.03 0.962-0.198 0.288-0.532 0.432-0.879 0.372-3.502-0.599-19.699-3.435-37.428-7.582 3.621 8.304 6.278 17.759 7.815 27.922 0.044 0.291-0.059 0.585-0.275 0.785s-0.514 0.281-0.8 0.216c-3.868-0.876-37.907-9.104-48.439-29.273-2.049 1.83-9.579 7.908-18.141 6.822-5.607-0.711-10.546-4.324-14.682-10.739l-13.444-10.343c-0.378-0.29-0.554-0.761-0.458-1.228 0.095-0.467 0.441-0.831 0.903-0.951l13.673-3.528c1.336-0.345 2.464-1.24 3.095-2.456 2.98-5.741 12.54-21.997 27.951-28.407-1.863-2.037-7.557-8.681-9.324-15.517-16.413-0.687-30.196-2.964-37.617-4.421-1.131-0.222-2.048-1-2.453-2.08-0.404-1.082-0.222-2.273 0.487-3.185l1.456-1.872c0.636-0.817 1.6-1.275 2.602-1.275 0.283 0 0.569 0.036 0.851 0.112 7.604 2.028 43.194 11.311 57.719 11.331 0.362-0.024 0.727-0.057 1.09-0.084-0.837-6.16-0.48-14.327 5.578-19.342 1.293-1.07 2.9-1.63 4.556-1.63 0.778 0 1.566 0.124 2.338 0.375 2.371 0.772 4.141 2.626 4.736 4.96 0.861 3.38 0.413 6.391-1.332 8.953-1.715 2.514-4.614 4.535-8.619 6.014 4.641-0.531 9.308-1.259 13.937-2.226 2.902-0.606 5.722-1.302 8.463-2.073 2.249-1.509 4.469-3.768 6.817-6.16 4.609-4.697 9.662-9.847 15.866-9.847 2.374 0 4.917 0.754 7.666 2.577 2.227 1.475 3.631 3.829 3.755 6.297 0.105 2.07-0.723 3.936-2.332 5.253-4.324 3.541-10.511 4.967-17.894 4.124-4.965-0.566-8.851-1.951-9.724-2.279-1.212 0.386-2.444 0.752-3.692 1.105-0.05 0.022-0.101 0.035-0.154 0.042-2.758 0.776-5.595 1.476-8.514 2.087 4.894 0.041 10.078 1.334 13.747 5.542 1.621 1.859 2.156 4.423 1.431 6.86-0.712 2.389-2.52 4.206-4.837 4.86-3.356 0.949-6.379 0.577-8.984-1.103-2.686-1.731-4.863-4.781-6.469-9.065-1.134-3.023-1.553-5.549-1.602-5.857-4.018 0.647-8.042 1.134-12.03 1.482-0.98 0.188-2.211 0.282-3.69 0.284-2.101 0.141-4.185 0.242-6.253 0.314 1.489 7.243 10.196 12.828 10.286 12.886" clip-path="url(#clipPath2)"/>
		<path transform="matrix(1.3333 0 0 -1.3333 139.88 127.39)" d="m0 0c-1.365 0-2.476 1.111-2.476 2.476s1.111 2.476 2.476 2.476 2.476-1.111 2.476-2.476-1.111-2.476-2.476-2.476m0 6.106c-2.002 0-3.63-1.628-3.63-3.63s1.628-3.63 3.63-3.63 3.63 1.628 3.63 3.63-1.628 3.63-3.63 3.63" clip-path="url(#clipPath4)"/>
		<path transform="matrix(1.3333 0 0 -1.3333 189.23 39.656)" d="m0 0c-46.934 0-85.118-38.184-85.118-85.118s38.184-85.118 85.118-85.118 85.119 38.184 85.119 85.118-38.185 85.118-85.119 85.118m0-171.33c-47.538 0-86.213 38.675-86.213 86.213s38.675 86.213 86.213 86.213 86.214-38.675 86.214-86.213-38.676-86.213-86.214-86.213" clip-path="url(#clipPath6)"/>
	</g>
</svg>
